<svg id="Layer_1" data-name="Layer 1" xmlns="http://www.w3.org/2000/svg" viewBox="0 0 638 169.67"><defs><style>.cls-1{fill-rule:evenodd;}</style></defs><title>Lush Logo Vector</title><path class="cls-1" d="M181,419V581H303.1V539.47h-72V419M471,518.36c0,44.93-24.36,66.47-74,66.47s-74.26-21.54-74.26-66.47V419h50.11v88.24c0,16.55,0,37.2,24.37,37.2,23.69,0,23.69-20.64,23.69-37.2V419H471Zm76,8.19a29.51,29.51,0,0,0,1.83,10.65C552.46,547,563.41,549,572.75,549c8.19,0,20.74-2.71,20.74-14.74,0-8.39-7.07-10.65-35.1-18.6-25.74-7.26-55.13-14.29-55.13-47,0-37.42,32.12-53.53,65.62-53.53,35.28,0,66.51,13.39,67.88,52.85h-47.4c.92-6.12-1.84-10.2-5.92-12.92-4.09-2.95-9.78-4.09-14.8-4.09-6.84,0-18,1.81-18,10.89.92,11.57,24.16,14.07,47.16,20.41s45.81,17,45.81,46.74c0,42.18-39,55.8-75.19,55.8-18.45,0-71.06-6.58-71.53-58.29H547ZM768.9,419v56.25h-47V419H671.83V581h50.11v-64.2h47V581H819V419" transform="translate(-181 -415.16)"/></svg>